<?xml version="1.0" standalone="no"?>
<!DOCTYPE svg PUBLIC "-//W3C//DTD SVG 20010904//EN"
 "http://www.w3.org/TR/2001/REC-SVG-20010904/DTD/svg10.dtd">
<svg version="1.0" xmlns="http://www.w3.org/2000/svg"
 width="237.000000pt" height="445.000000pt" viewBox="0 0 237.000000 445.000000"
 preserveAspectRatio="xMidYMid meet">
<metadata>
Created by potrace 1.14, written by Peter Selinger 2001-2017
</metadata>
<g transform="translate(0.000000,445.000000) scale(0.100000,-0.100000)"
fill="#111000" stroke="none">
<path stroke="#ffffff" stroke-width="15" stroke-opacity="0.6" d="M784 4304 c-36 -76 -67 -149 -68 -161 0 -11 -4 -19 -7 -17 -10 6 -61
-115 -53 -128 4 -6 3 -8 -3 -5 -6 4 -16 -6 -23 -21 -31 -66 -40 -93 -31 -87 8
4 8 -2 1 -22 -18 -47 -93 -203 -97 -200 -2 2 17 48 43 101 25 54 43 100 41
102 -8 8 -137 -288 -131 -298 4 -6 2 -8 -3 -5 -11 7 -28 -22 -18 -31 3 -3 5 1
5 8 0 7 3 11 6 8 3 -3 -5 -29 -17 -57 -12 -29 -24 -50 -26 -47 -3 2 3 18 12
36 9 18 15 34 12 36 -3 3 -303 -638 -387 -829 -20 -45 -36 -116 -22 -103 3 4
12 -4 19 -16 8 -15 13 -18 13 -8 0 9 6 5 15 -10 17 -29 19 -44 5 -35 -6 3 -7
-1 -4 -9 3 -9 10 -14 14 -11 12 7 61 -102 54 -120 -4 -9 -1 -15 8 -15 21 0 72
-121 56 -132 -10 -6 -9 -8 3 -8 17 0 47 -75 35 -87 -9 -9 -27 18 -20 29 3 4 1
8 -4 8 -5 0 -19 22 -32 50 -13 27 -25 48 -27 46 -9 -8 69 -156 79 -150 6 4 8
3 5 -3 -3 -5 4 -35 17 -67 16 -38 25 -52 29 -42 8 20 37 21 37 1 0 -8 11 -38
25 -67 14 -28 25 -55 25 -60 0 -19 -38 18 -60 58 -12 25 -25 43 -27 41 -2 -3
32 -79 76 -171 63 -134 81 -163 86 -146 8 27 15 20 50 -48 15 -29 31 -55 36
-58 15 -9 10 -34 -6 -34 -22 0 -19 -8 15 -36 16 -14 35 -44 42 -67 7 -23 23
-57 35 -76 13 -19 23 -38 23 -43 0 -5 32 -84 70 -176 39 -91 80 -195 92 -231
20 -65 47 -113 34 -61 -3 14 -9 114 -12 222 -5 150 -3 202 6 213 13 15 6 50
-8 41 -5 -3 -7 14 -6 37 1 29 7 43 18 45 13 3 16 -15 19 -130 l3 -133 2 156 2
155 -61 35 c-69 38 -143 114 -170 173 -11 26 -16 56 -14 90 l4 51 -14 -60 c-7
-33 -11 -63 -9 -67 3 -5 -4 -8 -14 -8 -12 0 -24 11 -30 28 -48 124 -60 160
-57 182 1 14 -2 34 -8 45 -6 11 -12 34 -14 52 l-3 32 38 -13 c37 -13 38 -13
40 10 1 13 -2 24 -7 24 -11 0 -32 74 -26 91 2 8 -9 23 -27 34 -32 20 -54 55
-27 41 8 -4 6 -1 -3 7 -10 8 -18 21 -18 30 0 9 -4 19 -10 22 -5 3 -10 16 -10
29 0 12 -4 26 -9 32 -11 11 -43 116 -37 121 2 3 7 -6 11 -19 37 -124 117 -206
279 -283 76 -37 123 -66 140 -88 63 -80 58 -77 51 -22 -7 61 11 40 24 -28 7
-31 9 -35 10 -15 1 31 30 51 58 41 35 -12 102 -74 134 -123 37 -57 47 -65 23
-18 -28 54 -104 126 -165 157 -33 16 -73 41 -89 54 -16 14 -59 35 -95 47 -154
51 -206 87 -295 201 -42 54 -45 66 -4 20 71 -82 118 -122 166 -143 26 -11 53
-27 59 -34 9 -11 25 -13 58 -9 27 4 41 3 34 -2 -13 -9 19 -29 87 -54 98 -35
200 -124 256 -222 l24 -42 -6 40 c-3 22 -2 35 3 30 4 -6 21 -19 37 -29 35 -22
28 -10 -33 63 -40 47 -48 65 -67 150 -15 65 -19 103 -13 119 5 13 9 40 9 61 0
35 2 38 25 33 14 -2 23 -8 20 -12 -2 -4 4 -16 13 -26 10 -10 22 -28 26 -39 5
-12 10 -15 13 -8 4 12 -8 38 -57 113 -31 50 -39 77 -12 44 9 -11 34 -40 55
-65 l39 -44 -7 40 c-13 79 -26 115 -40 115 -7 0 -17 9 -20 20 -3 11 -12 20
-19 20 -7 0 -19 15 -27 33 -8 17 -20 31 -27 29 -6 -1 -12 3 -12 10 0 6 -14 46
-32 89 l-31 77 -21 -26 c-12 -15 -19 -37 -17 -51 3 -22 1 -23 -13 -12 -9 7
-16 20 -16 27 0 13 -34 20 -82 16 -9 -1 -22 5 -28 13 -15 18 1 20 19 3 11 -10
12 -10 7 -1 -4 7 -16 18 -28 24 -16 8 -19 8 -13 -1 5 -8 3 -11 -6 -8 -8 3 -13
10 -12 16 1 5 -4 13 -12 16 -10 4 -15 -1 -15 -14 0 -11 4 -20 8 -20 10 0 47
-65 57 -100 7 -25 7 -25 -12 -5 -10 11 -25 34 -32 52 -7 17 -22 40 -34 50 -20
18 -20 17 1 -18 12 -20 22 -51 22 -68 0 -27 -5 -34 -35 -47 -74 -30 -188 -12
-229 37 -35 41 -34 89 5 242 45 182 59 225 75 242 24 24 76 18 127 -15 26 -17
50 -30 52 -30 3 0 5 11 5 23 0 25 -41 88 -80 122 -64 57 -65 110 -11 320 23
87 40 160 37 162 -2 3 -7 -9 -11 -26 -4 -17 -10 -33 -15 -36 -9 -6 16 111 65
305 71 277 79 302 103 318 21 14 25 13 40 -1 15 -16 15 -17 -4 -17 -27 0 -51
-27 -58 -65 l-6 -30 14 31 c12 25 23 33 55 38 22 3 42 9 44 14 3 4 -2 25 -10
47 -8 22 -18 73 -22 113 -5 45 -15 80 -24 90 -15 14 -22 4 -83 -124z m-527
-1711 c21 -61 101 -271 129 -338 18 -44 40 -102 50 -130 9 -27 24 -67 34 -87
10 -21 14 -38 9 -38 -14 0 -64 60 -65 79 -1 9 -2 28 -3 44 0 17 -7 27 -16 27
-8 0 -15 9 -15 19 0 11 -4 22 -9 26 -5 3 -13 19 -16 37 -4 17 -16 45 -26 62
-10 17 -19 37 -19 44 0 7 -9 33 -20 58 -12 25 -18 54 -15 65 4 10 2 19 -3 19
-5 0 -14 25 -21 55 -7 30 -20 59 -29 65 -15 8 -14 9 6 10 13 0 25 -8 29 -17z
m361 -189 c40 -9 87 -13 105 -10 18 4 40 8 49 9 10 2 29 14 43 27 23 22 25 22
25 4 -1 -40 -55 -78 -127 -90 -81 -13 -221 50 -267 121 -15 23 -12 22 41 -10
33 -20 89 -42 131 -51z"/>
<path stroke="#ffffff" stroke-width="15" stroke-opacity="0.6" d="M1509 4382 c-1 -9 -1 -34 1 -56 1 -26 -2 -36 -9 -32 -6 4 -11 17 -12
29 0 12 -7 -9 -15 -47 -8 -37 -13 -70 -10 -73 2 -3 14 1 26 7 17 9 26 8 46 -5
13 -8 24 -20 24 -26 0 -6 3 -8 8 -6 4 3 7 -15 8 -41 1 -40 0 -43 -13 -27 -7
11 -13 27 -13 36 0 20 -36 49 -60 49 -9 0 -2 -10 17 -26 19 -15 37 -41 44 -65
8 -24 15 -35 20 -28 11 19 24 -14 63 -172 36 -147 45 -209 26 -179 -9 13 -10
13 -9 0 1 -22 17 -67 18 -52 3 40 36 -26 47 -93 2 -11 15 -63 29 -115 25 -92
43 -200 32 -200 -2 0 -14 43 -27 96 -12 52 -24 93 -26 91 -3 -3 2 -32 10 -65
19 -71 20 -135 4 -165 -6 -12 -29 -43 -51 -69 -21 -26 -36 -51 -32 -57 3 -6
35 -11 70 -11 42 0 68 -5 78 -14 13 -14 47 -122 63 -203 4 -18 10 -31 14 -28
4 2 5 -8 3 -23 -4 -22 -2 -24 7 -12 9 12 10 7 5 -20 -3 -19 -3 -30 2 -24 4 7
9 -21 11 -63 3 -89 -8 -112 -70 -144 -34 -17 -55 -20 -116 -17 -64 3 -77 7
-94 28 -24 30 -18 60 23 111 21 26 26 40 18 45 -8 4 -9 3 -5 -4 4 -7 4 -12 -1
-13 -45 -4 -61 -3 -56 5 3 5 0 6 -8 4 -8 -3 -13 -11 -11 -17 1 -7 -2 -10 -7
-6 -6 3 -29 -8 -51 -24 -32 -23 -48 -28 -73 -25 -27 5 -37 0 -66 -30 -19 -20
-41 -36 -48 -36 -7 0 -26 27 -43 60 -17 33 -60 93 -97 133 -75 81 -97 125 -89
172 7 36 52 83 116 119 25 14 41 26 36 26 -5 0 -38 -15 -72 -34 -54 -30 -66
-33 -87 -23 l-25 11 31 23 c17 13 44 23 60 23 15 0 26 4 23 9 -3 5 28 25 70
45 42 20 91 48 110 62 20 16 34 21 34 14 0 -10 3 -10 15 0 29 24 15 -5 -22
-45 l-38 -40 38 35 c56 50 87 117 87 184 0 61 -23 131 -46 140 -9 3 -13 10
-10 15 3 4 -4 17 -17 27 -14 13 -18 14 -12 4 6 -9 1 -6 -10 6 -11 13 -45 34
-77 48 -31 14 -60 30 -64 37 -5 8 7 25 32 46 l39 34 -35 -20 c-45 -27 -52 -26
-39 3 6 13 28 31 48 40 35 15 34 15 -49 9 -113 -7 -130 1 -157 73 -12 33 -26
74 -30 93 -10 40 -39 64 -52 43 -5 -8 -2 -29 5 -50 13 -38 19 -141 7 -129 -3
4 -9 24 -13 44 -6 31 -7 27 -7 -27 0 -51 -6 -76 -27 -118 -18 -35 -25 -61 -20
-75 3 -12 3 -18 -2 -14 -4 4 -13 -12 -19 -35 -6 -24 -15 -54 -19 -67 -7 -21
-6 -23 13 -18 21 5 29 -7 11 -18 -13 -8 -13 -37 0 -71 l11 -27 26 39 c39 58
73 93 121 121 38 22 51 25 107 21 118 -10 195 -77 195 -168 0 -84 -62 -135
-245 -201 -47 -17 -87 -35 -90 -40 -3 -4 10 -2 29 6 59 25 55 17 -8 -15 -32
-16 -62 -28 -66 -25 -10 6 -59 -66 -76 -112 -18 -52 -17 -68 4 -71 9 -1 26 -4
37 -6 11 -2 23 -5 27 -5 3 -1 9 -14 13 -31 4 -16 28 -63 55 -104 27 -42 55
-88 63 -103 16 -32 20 -93 6 -93 -5 0 -9 5 -9 10 0 6 -9 10 -20 10 -11 0 -20
-5 -20 -11 0 -5 5 -7 10 -4 6 3 10 1 10 -5 0 -12 24 -40 35 -40 3 0 3 4 0 10
-3 6 -2 10 4 10 13 0 16 -15 42 -165 19 -113 18 -110 34 -89 19 25 19 12 0
-33 -8 -19 -15 -44 -15 -54 0 -11 -5 -19 -11 -19 -18 0 -4 -23 15 -26 27 -4
29 -10 10 -28 -17 -17 -16 -77 3 -199 l6 -39 28 49 c33 56 38 51 9 -10 -31
-64 -40 -110 -23 -126 8 -7 12 -19 9 -27 -3 -8 1 -14 11 -14 20 0 53 -38 47
-55 -3 -7 2 -15 10 -18 20 -8 21 -56 1 -93 -8 -15 -12 -31 -8 -34 3 -3 8 1 10
8 3 6 9 12 14 12 6 0 8 -3 6 -7 -3 -5 -1 -28 4 -53 8 -47 6 30 -7 247 -8 124
4 178 51 223 44 42 68 37 76 -15 6 -37 6 -37 8 -8 0 17 6 35 12 39 9 5 10 -1
5 -20 -4 -15 -2 -26 4 -26 5 0 10 5 10 11 0 14 115 129 129 129 21 0 10 -15
-29 -43 -46 -32 -85 -81 -94 -117 -5 -20 -3 -18 12 8 24 44 89 110 126 129 27
14 31 14 43 -3 7 -10 13 -37 13 -60 0 -24 4 -46 10 -49 6 -3 7 1 4 10 -6 14
-1 13 32 -4 54 -29 63 -26 29 9 -16 17 -25 31 -19 32 5 0 14 2 19 3 6 0 21 5
35 10 l25 8 -23 8 c-12 5 -22 13 -22 19 0 16 40 12 46 -5 9 -21 19 -19 32 8 7
14 11 16 12 7 1 -18 30 46 54 118 10 28 22 52 27 52 13 0 14 4 -52 -161 -44
-110 -59 -159 -54 -177 5 -20 1 -30 -17 -44 -19 -15 -20 -18 -5 -18 9 0 17 -4
17 -10 0 -5 -7 -10 -15 -10 -12 0 -13 -4 -3 -26 11 -22 9 -28 -18 -50 -18 -16
-37 -24 -51 -21 -21 4 -23 0 -23 -34 0 -32 -10 -51 -63 -116 -42 -52 -80 -87
-113 -105 -27 -14 -55 -37 -61 -50 -11 -21 -19 -208 -9 -197 3 2 6 41 7 87 2
61 7 82 17 82 10 0 13 -24 12 -113 -2 -183 -2 -187 15 -187 8 0 15 6 15 13 0
9 2 9 9 -1 11 -18 79 9 87 35 3 10 18 45 34 78 15 33 31 71 35 85 5 14 15 36
24 50 23 34 40 90 34 106 -3 8 0 14 6 14 6 0 11 7 11 16 0 9 6 28 14 42 7 15
28 61 47 102 18 41 40 82 47 90 15 16 15 10 -3 -60 -3 -14 17 19 45 74 28 54
49 101 45 104 -3 3 -8 -4 -12 -16 -3 -12 -10 -22 -15 -22 -5 0 -6 -6 -2 -12 4
-7 -1 -6 -10 3 -18 17 -19 15 109 284 19 39 41 88 50 110 10 22 19 34 22 27 5
-14 -85 -225 -99 -230 -4 -2 -8 -19 -8 -37 0 -19 -6 -40 -12 -47 -7 -7 -14
-22 -15 -33 -3 -24 31 45 127 260 40 88 102 223 137 300 43 92 66 154 67 180
1 31 -17 77 -81 210 -46 94 -83 174 -83 178 0 24 -124 276 -133 270 -6 -3 -7
-1 -3 5 4 6 0 22 -8 34 -8 13 -28 57 -44 98 -17 41 -92 208 -167 370 -76 162
-154 334 -175 381 -92 207 -147 295 -151 241z m141 -407 c68 -195 152 -444
194 -570 19 -55 41 -117 50 -137 9 -20 12 -39 7 -43 -5 -3 -12 1 -14 7 -4 10
-7 10 -14 1 -6 -8 -22 31 -47 110 -20 67 -44 136 -52 152 -7 17 -16 43 -18 58
-3 16 -9 34 -14 40 -4 7 -14 37 -22 67 -7 30 -22 82 -32 115 -11 33 -31 103
-44 155 -14 52 -32 114 -40 138 -13 41 -18 70 -10 61 2 -2 27 -71 56 -154z
m-358 -431 c54 -18 101 -51 92 -65 -3 -6 3 -13 14 -16 11 -2 25 -16 31 -29 13
-30 14 -47 2 -40 -5 4 -12 0 -14 -6 -3 -8 -6 -6 -6 4 -1 26 -59 86 -103 109
-22 11 -61 23 -88 26 -84 10 -114 -2 -191 -74 -74 -70 -103 -79 -48 -15 103
120 186 148 311 106z m611 -1101 c-58 -70 -92 -89 -167 -97 -100 -10 -142 0
-187 46 -21 22 -39 43 -39 47 0 20 15 18 42 -4 44 -37 102 -50 174 -37 75 12
181 58 195 84 6 11 13 17 16 14 4 -3 -12 -27 -34 -53z"/>
<path stroke="#ffffff" stroke-width="15" stroke-opacity="0.6" d="M1198 1485 c-4 -66 -10 -82 -63 -176 -144 -258 -140 -249 -101 -249
19 0 33 17 76 93 29 50 67 115 85 142 49 74 85 146 79 156 -3 5 -18 9 -35 9
-26 0 -29 3 -29 31 0 28 2 31 25 25 32 -8 31 -5 -4 21 l-28 22 -5 -74z"/>
<path stroke="#ffffff" stroke-width="15" stroke-opacity="0.6" d="M1059 620 c-26 -37 -48 -59 -58 -58 -12 2 -16 -6 -17 -32 0 -19 3
-37 6 -40 10 -8 55 -109 74 -165 28 -82 100 -238 112 -242 6 -2 14 4 18 13 8
21 28 152 28 177 -1 10 3 30 9 43 6 17 6 23 -1 19 -6 -3 -10 -3 -10 2 0 12 59
73 71 73 6 0 17 6 24 13 8 6 22 19 32 27 38 32 -15 21 -93 -20 -85 -45 -127
-49 -166 -13 -61 55 -66 131 -14 208 49 74 38 70 -15 -5z"/>
</g>
</svg>
